<?xml version="1.0" standalone="no"?>
<!DOCTYPE svg PUBLIC "-//W3C//DTD SVG 20010904//EN"
 "http://www.w3.org/TR/2001/REC-SVG-20010904/DTD/svg10.dtd">
<svg version="1.0" xmlns="http://www.w3.org/2000/svg"
 width="1280.000000pt" height="867.000000pt" viewBox="0 0 1280.000000 867.000000"
 preserveAspectRatio="xMidYMid meet">
<g transform="translate(0.000000,867.000000) scale(0.100000,-0.100000)"
fill="#000000" stroke="none">
<path d="M5023 7535 c-176 -38 -312 -183 -346 -370 l-13 -70 -44 3 c-246 13
-453 -149 -491 -384 -36 -225 109 -439 338 -499 71 -18 131 -19 206 -1 52 12
59 12 80 -4 12 -10 103 -106 202 -214 99 -108 182 -196 185 -196 3 1 25 31 50
68 95 141 274 288 433 354 106 45 189 67 309 80 100 11 107 13 103 32 -3 12
-21 119 -40 239 l-36 218 44 49 c141 156 137 371 -8 515 -131 132 -321 147
-487 39 -26 -17 -26 -17 -79 30 -66 60 -132 94 -218 112 -80 17 -107 16 -188
-1z"/>
<path d="M5858 6185 c-463 -88 -789 -526 -737 -992 44 -398 327 -712 722 -799
93 -21 278 -21 374 0 336 73 596 316 693 646 12 41 23 80 25 87 3 10 14 9 46
-2 105 -37 200 -7 306 97 55 55 131 148 120 148 -2 0 -35 -20 -72 -45 -86 -56
-154 -79 -230 -79 -59 1 -134 28 -151 55 -5 9 -24 134 -28 194 -1 15 8 21 42
27 62 10 107 42 131 92 58 118 -19 239 -152 238 -40 -1 -60 -7 -94 -31 -24
-17 -47 -31 -51 -31 -4 0 -18 16 -31 36 -42 61 -155 168 -229 218 -89 59 -184
102 -281 128 -101 26 -298 33 -403 13z"/>
<path d="M7719 5827 c-19 -12 -42 -38 -51 -57 -39 -77 -13 -150 81 -222 36
-28 63 -58 67 -73 11 -46 -3 -105 -35 -145 -38 -47 -38 -53 -4 -80 l26 -21 30
28 c66 62 95 180 63 256 -7 18 -45 62 -85 97 -55 49 -71 69 -71 90 0 27 26 60
47 60 11 0 33 51 33 76 0 22 -63 17 -101 -9z"/>
<path d="M7982 5830 c-44 -27 -72 -76 -72 -128 0 -59 20 -93 87 -148 67 -53
82 -76 83 -122 0 -38 -11 -61 -51 -113 l-28 -36 30 -29 31 -29 39 45 c71 81
87 189 39 268 -11 17 -45 51 -75 74 -31 24 -58 53 -61 66 -9 35 4 72 30 82 20
7 46 53 46 81 0 17 -65 9 -98 -11z"/>
<path d="M7480 5118 c0 -24 4 -49 8 -56 7 -10 107 -12 467 -10 l459 3 8 40 c5
21 6 45 4 52 -4 10 -100 13 -476 13 l-470 0 0 -42z"/>
<path d="M4135 5089 c-22 -6 -75 -14 -117 -18 -83 -8 -150 -41 -163 -81 -14
-44 30 -64 170 -79 161 -18 272 -74 509 -260 128 -100 155 -107 239 -58 43 25
52 38 98 132 36 75 63 116 96 146 45 41 46 43 32 68 -21 37 -61 37 -151 1
-118 -47 -139 -44 -326 49 -88 44 -178 84 -199 90 -62 16 -145 20 -188 10z"/>
<path d="M7530 4976 c0 -23 75 -111 124 -147 25 -18 46 -36 46 -40 0 -12 -44
-19 -135 -19 -236 0 -605 -43 -605 -70 0 -12 56 -28 138 -40 342 -48 1016 -58
1412 -21 229 22 419 47 429 57 27 27 -213 59 -526 71 -100 3 -188 10 -195 15
-10 6 1 20 40 55 53 45 122 128 122 144 0 5 -191 9 -425 9 -359 0 -425 -2
-425 -14z"/>
<path d="M7458 4584 c-20 -19 -3 -43 57 -82 70 -46 135 -119 186 -208 41 -72
103 -114 168 -114 43 0 54 7 163 93 174 138 208 156 314 167 145 17 154 19
154 45 0 34 -36 73 -78 85 -20 5 -125 10 -233 10 l-197 0 -67 -31 c-86 -41
-125 -40 -195 1 -51 31 -63 34 -160 38 -58 2 -108 1 -112 -4z"/>
<path d="M4531 4517 c-5 -12 -39 -123 -76 -247 -82 -274 -136 -483 -127 -492
4 -4 163 -58 352 -119 190 -61 351 -117 359 -123 11 -9 13 -106 6 -618 l-7
-608 255 0 256 0 24 -32 c47 -64 129 -210 192 -341 80 -165 159 -367 148 -378
-5 -5 -33 -2 -63 6 -281 75 -515 -34 -644 -297 -25 -51 -48 -105 -52 -121 l-6
-27 1183 2 1184 3 -2 54 c-3 72 -49 168 -106 224 -98 95 -247 147 -447 156
-100 5 -125 9 -127 21 -2 8 82 175 185 370 l187 355 190 3 c104 1 193 6 197
10 11 11 -8 391 -27 559 -9 76 -30 207 -47 291 -17 88 -26 158 -21 163 5 5 87
4 192 -2 101 -6 185 -8 187 -6 12 12 36 256 69 701 l7 89 -45 -7 c-55 -8 -118
7 -169 40 -21 13 -42 24 -46 24 -5 0 -33 -65 -62 -145 -29 -79 -58 -149 -64
-154 -8 -7 -66 0 -177 21 l-164 31 -70 73 c-145 151 -241 203 -461 253 -465
106 -849 126 -1148 61 -122 -27 -223 -76 -295 -145 -47 -45 -64 -55 -92 -55
-63 1 -341 56 -349 70 -4 7 -6 85 -2 173 5 155 4 160 -14 153 -10 -5 -47 -10
-80 -13 -52 -5 -70 -1 -118 20 l-57 26 -8 -22z"/>
</g>
</svg>
